<!DOCTYPE svg PUBLIC "-//W3C//DTD SVG 1.1//EN" "http://www.w3.org/Graphics/SVG/1.1/DTD/svg11.dtd">
<!-- Uploaded to: SVG Repo, www.svgrepo.com, Transformed by: SVG Repo Mixer Tools -->
<svg width="800px" height="800px" viewBox="0 0 48 48" fill="none" xmlns="http://www.w3.org/2000/svg">
<g id="SVGRepo_bgCarrier" stroke-width="0"/>
<g id="SVGRepo_tracerCarrier" stroke-linecap="round" stroke-linejoin="round"/>
<g id="SVGRepo_iconCarrier"> <rect width="48" height="48" fill="white" fill-opacity="0.01"/> <path fill-rule="evenodd" clip-rule="evenodd" d="M24 3V6.15V3Z" fill="#000000"/> <path d="M24 3V6.15" stroke="#000000" stroke-width="1.296" stroke-linecap="round" stroke-linejoin="round"/> <path fill-rule="evenodd" clip-rule="evenodd" d="M38.8492 9.15076L36.6219 11.3781L38.8492 9.15076Z" fill="#000000"/> <path d="M38.8492 9.15076L36.6219 11.3781" stroke="#000000" stroke-width="1.296" stroke-linecap="round" stroke-linejoin="round"/> <path fill-rule="evenodd" clip-rule="evenodd" d="M45 24H41.85H45Z" fill="#000000"/> <path d="M45 24H41.85" stroke="#000000" stroke-width="1.296" stroke-linecap="round" stroke-linejoin="round"/> <path fill-rule="evenodd" clip-rule="evenodd" d="M38.8492 38.8492L36.6219 36.6219L38.8492 38.8492Z" fill="#000000"/> <path d="M38.8492 38.8492L36.6219 36.6219" stroke="#000000" stroke-width="1.296" stroke-linecap="round" stroke-linejoin="round"/> <path fill-rule="evenodd" clip-rule="evenodd" d="M24 45V41.85V45Z" fill="#000000"/> <path d="M24 45V41.85" stroke="#000000" stroke-width="1.296" stroke-linecap="round" stroke-linejoin="round"/> <path fill-rule="evenodd" clip-rule="evenodd" d="M9.15076 38.8492L11.3781 36.6219L9.15076 38.8492Z" fill="#000000"/> <path d="M9.15076 38.8492L11.3781 36.6219" stroke="#000000" stroke-width="1.296" stroke-linecap="round" stroke-linejoin="round"/> <path fill-rule="evenodd" clip-rule="evenodd" d="M3 24H6.15H3Z" fill="#000000"/> <path d="M3 24H6.15" stroke="#000000" stroke-width="1.296" stroke-linecap="round" stroke-linejoin="round"/> <path fill-rule="evenodd" clip-rule="evenodd" d="M9.15076 9.15076L11.3781 11.3781L9.15076 9.15076Z" fill="#000000"/> <path d="M9.15076 9.15076L11.3781 11.3781" stroke="#000000" stroke-width="1.296" stroke-linecap="round" stroke-linejoin="round"/> <path d="M24 36C30.6274 36 36 30.6274 36 24C36 17.3726 30.6274 12 24 12C17.3726 12 12 17.3726 12 24C12 30.6274 17.3726 36 24 36Z" fill="#ff4500" stroke="#000000" stroke-width="1.296" stroke-linejoin="round"/> </g>
</svg>