<!DOCTYPE svg PUBLIC "-//W3C//DTD SVG 1.1//EN" "http://www.w3.org/Graphics/SVG/1.1/DTD/svg11.dtd">
<!-- Uploaded to: SVG Repo, www.svgrepo.com, Transformed by: SVG Repo Mixer Tools -->
<svg width="239px" height="239px" viewBox="-3.2 -3.2 38.40 38.40" data-name="Layer 2" id="Layer_2" xmlns="http://www.w3.org/2000/svg" fill="#000000">
<g id="SVGRepo_bgCarrier" stroke-width="0">
<rect x="-3.2" y="-3.2" width="38.40" height="38.40" rx="19.2" fill="#ffffff" strokewidth="0"/>
</g>
<g id="SVGRepo_tracerCarrier" stroke-linecap="round" stroke-linejoin="round"/>
<g id="SVGRepo_iconCarrier">
<defs>
<style>.cls-1{fill:#F57328;}</style>
</defs>
<title/>
<path d="M28,9V3L27,2H5L4,3V9l1,1H7.18l-3,4.78L4,15.32V29l1,1H27l1-1V15.32l-.16-.54-3-4.78H27Zm-2,6.61V28H6V15.61L9.55,10h12.9ZM26,8H6V4H26Z"/>
<polygon class="cls-1" points="26 15.61 26 28 24 28 24 15.32 23.84 14.78 20.82 10 22.45 10 26 15.61"/>
<rect class="cls-1" height="4" width="2" x="24" y="4"/>
<polygon points="15 23 17 23 17 20.5 19.5 20.5 19.5 18.5 17 18.5 17 16 15 16 15 18.5 12.5 18.5 12.5 20.5 15 20.5 15 23"/>
</g>
</svg>